<svg width="1440" height="1286" viewBox="0 0 1440 1286" fill="none" xmlns="http://www.w3.org/2000/svg">
<rect width="1440" height="1289" fill="white"/>
<g opacity="0.4">
<rect x="598" y="251" width="1376.03" height="767.907" rx="99" transform="rotate(-45 598 251)" fill="#FFEAA7"/>
</g>
<g clip-path="url(#clip0_32139_8569)">
<path d="M1393.7 149.661C1397.4 149.661 1400.39 146.668 1400.39 142.975C1400.39 139.282 1397.4 136.288 1393.7 136.288C1390.01 136.288 1387.02 139.282 1387.02 142.975C1387.02 146.668 1390.01 149.661 1393.7 149.661Z" fill="#FDCB6E"/>
<path d="M1415.99 127.373C1419.69 127.373 1422.68 124.379 1422.68 120.686C1422.68 116.994 1419.69 114 1415.99 114C1412.3 114 1409.31 116.994 1409.31 120.686C1409.31 124.379 1412.3 127.373 1415.99 127.373Z" fill="#FDCB6E"/>
<path d="M1438.28 149.661C1441.97 149.661 1444.97 146.668 1444.97 142.975C1444.97 139.282 1441.97 136.288 1438.28 136.288C1434.59 136.288 1431.59 139.282 1431.59 142.975C1431.59 146.668 1434.59 149.661 1438.28 149.661Z" fill="#FDCB6E"/>
<path d="M1349.13 194.238C1352.82 194.238 1355.81 191.244 1355.81 187.551C1355.81 183.858 1352.82 180.865 1349.13 180.865C1345.43 180.865 1342.44 183.858 1342.44 187.551C1342.44 191.244 1345.43 194.238 1349.13 194.238Z" fill="#FDCB6E"/>
<path d="M1371.42 171.949C1375.11 171.949 1378.1 168.956 1378.1 165.263C1378.1 161.57 1375.11 158.576 1371.42 158.576C1367.72 158.576 1364.73 161.57 1364.73 165.263C1364.73 168.956 1367.72 171.949 1371.42 171.949Z" fill="#FDCB6E"/>
<path d="M1393.7 194.238C1397.4 194.238 1400.39 191.244 1400.39 187.551C1400.39 183.858 1397.4 180.865 1393.7 180.865C1390.01 180.865 1387.02 183.858 1387.02 187.551C1387.02 191.244 1390.01 194.238 1393.7 194.238Z" fill="#FDCB6E"/>
<path d="M1415.99 171.949C1419.69 171.949 1422.68 168.956 1422.68 165.263C1422.68 161.57 1419.69 158.576 1415.99 158.576C1412.3 158.576 1409.31 161.57 1409.31 165.263C1409.31 168.956 1412.3 171.949 1415.99 171.949Z" fill="#FDCB6E"/>
<path d="M1438.28 194.238C1441.97 194.238 1444.97 191.244 1444.97 187.551C1444.97 183.858 1441.97 180.865 1438.28 180.865C1434.59 180.865 1431.59 183.858 1431.59 187.551C1431.59 191.244 1434.59 194.238 1438.28 194.238Z" fill="#FDCB6E"/>
<path d="M1304.55 238.814C1308.24 238.814 1311.24 235.82 1311.24 232.128C1311.24 228.435 1308.24 225.441 1304.55 225.441C1300.86 225.441 1297.86 228.435 1297.86 232.128C1297.86 235.82 1300.86 238.814 1304.55 238.814Z" fill="#FDCB6E"/>
<path d="M1326.84 216.526C1330.53 216.526 1333.53 213.532 1333.53 209.839C1333.53 206.147 1330.53 203.153 1326.84 203.153C1323.15 203.153 1320.15 206.147 1320.15 209.839C1320.15 213.532 1323.15 216.526 1326.84 216.526Z" fill="#FDCB6E"/>
<path d="M1349.13 238.814C1352.82 238.814 1355.81 235.82 1355.81 232.128C1355.81 228.435 1352.82 225.441 1349.13 225.441C1345.43 225.441 1342.44 228.435 1342.44 232.128C1342.44 235.82 1345.43 238.814 1349.13 238.814Z" fill="#FDCB6E"/>
<path d="M1371.42 216.526C1375.11 216.526 1378.1 213.532 1378.1 209.839C1378.1 206.147 1375.11 203.153 1371.42 203.153C1367.72 203.153 1364.73 206.147 1364.73 209.839C1364.73 213.532 1367.72 216.526 1371.42 216.526Z" fill="#FDCB6E"/>
<path d="M1393.7 238.814C1397.4 238.814 1400.39 235.82 1400.39 232.128C1400.39 228.435 1397.4 225.441 1393.7 225.441C1390.01 225.441 1387.02 228.435 1387.02 232.128C1387.02 235.82 1390.01 238.814 1393.7 238.814Z" fill="#FDCB6E"/>
<path d="M1415.99 216.526C1419.69 216.526 1422.68 213.532 1422.68 209.839C1422.68 206.147 1419.69 203.153 1415.99 203.153C1412.3 203.153 1409.31 206.147 1409.31 209.839C1409.31 213.532 1412.3 216.526 1415.99 216.526Z" fill="#FDCB6E"/>
<path d="M1438.28 238.814C1441.97 238.814 1444.97 235.82 1444.97 232.128C1444.97 228.435 1441.97 225.441 1438.28 225.441C1434.59 225.441 1431.59 228.435 1431.59 232.128C1431.59 235.82 1434.59 238.814 1438.28 238.814Z" fill="#FDCB6E"/>
<path d="M1326.84 261.102C1330.53 261.102 1333.53 258.109 1333.53 254.416C1333.53 250.723 1330.53 247.729 1326.84 247.729C1323.15 247.729 1320.15 250.723 1320.15 254.416C1320.15 258.109 1323.15 261.102 1326.84 261.102Z" fill="#FDCB6E"/>
<path d="M1349.13 283.391C1352.82 283.391 1355.81 280.397 1355.81 276.704C1355.81 273.011 1352.82 270.018 1349.13 270.018C1345.43 270.018 1342.44 273.011 1342.44 276.704C1342.44 280.397 1345.43 283.391 1349.13 283.391Z" fill="#FDCB6E"/>
<path d="M1371.42 261.102C1375.11 261.102 1378.1 258.109 1378.1 254.416C1378.1 250.723 1375.11 247.729 1371.42 247.729C1367.72 247.729 1364.73 250.723 1364.73 254.416C1364.73 258.109 1367.72 261.102 1371.42 261.102Z" fill="#FDCB6E"/>
<path d="M1393.7 283.391C1397.4 283.391 1400.39 280.397 1400.39 276.704C1400.39 273.011 1397.4 270.018 1393.7 270.018C1390.01 270.018 1387.02 273.011 1387.02 276.704C1387.02 280.397 1390.01 283.391 1393.7 283.391Z" fill="#FDCB6E"/>
<path d="M1415.99 261.102C1419.69 261.102 1422.68 258.109 1422.68 254.416C1422.68 250.723 1419.69 247.729 1415.99 247.729C1412.3 247.729 1409.31 250.723 1409.31 254.416C1409.31 258.109 1412.3 261.102 1415.99 261.102Z" fill="#FDCB6E"/>
<path d="M1438.28 283.391C1441.97 283.391 1444.97 280.397 1444.97 276.704C1444.97 273.011 1441.97 270.018 1438.28 270.018C1434.59 270.018 1431.59 273.011 1431.59 276.704C1431.59 280.397 1434.59 283.391 1438.28 283.391Z" fill="#FDCB6E"/>
<path d="M1371.42 305.679C1375.11 305.679 1378.1 302.685 1378.1 298.992C1378.1 295.299 1375.11 292.306 1371.42 292.306C1367.72 292.306 1364.73 295.299 1364.73 298.992C1364.73 302.685 1367.72 305.679 1371.42 305.679Z" fill="#FDCB6E"/>
<path d="M1393.7 327.967C1397.4 327.967 1400.39 324.973 1400.39 321.281C1400.39 317.588 1397.4 314.594 1393.7 314.594C1390.01 314.594 1387.02 317.588 1387.02 321.281C1387.02 324.973 1390.01 327.967 1393.7 327.967Z" fill="#FDCB6E"/>
<path d="M1415.99 305.679C1419.69 305.679 1422.68 302.685 1422.68 298.992C1422.68 295.299 1419.69 292.306 1415.99 292.306C1412.3 292.306 1409.31 295.299 1409.31 298.992C1409.31 302.685 1412.3 305.679 1415.99 305.679Z" fill="#FDCB6E"/>
<path d="M1438.28 327.967C1441.97 327.967 1444.97 324.973 1444.97 321.281C1444.97 317.588 1441.97 314.594 1438.28 314.594C1434.59 314.594 1431.59 317.588 1431.59 321.281C1431.59 324.973 1434.59 327.967 1438.28 327.967Z" fill="#FDCB6E"/>
<path d="M1415.99 350.255C1419.69 350.255 1422.68 347.262 1422.68 343.569C1422.68 339.876 1419.69 336.882 1415.99 336.882C1412.3 336.882 1409.31 339.876 1409.31 343.569C1409.31 347.262 1412.3 350.255 1415.99 350.255Z" fill="#FDCB6E"/>
<path d="M1438.28 372.543C1441.97 372.543 1444.97 369.55 1444.97 365.857C1444.97 362.164 1441.97 359.171 1438.28 359.171C1434.59 359.171 1431.59 362.164 1431.59 365.857C1431.59 369.55 1434.59 372.543 1438.28 372.543Z" fill="#FDCB6E"/>
</g>
<defs>
<clipPath id="clip0_32139_8569">
<rect width="209" height="285" fill="white" transform="translate(1231 114)"/>
</clipPath>
</defs>
</svg>
